<svg xmlns="http://www.w3.org/2000/svg" height="24px" viewBox="0 -960 960 960" width="24px" fill="#1f1f1f"><path d="M480-80q-131 0-225.5-89T160-387q0-68 29-129.5T268-624l172-168v108l-80 80q-51 51-75.5 101T260-387q0 91 66.5 149T480-180q24 0 47-4t43-12l64 64q-33 21-70.5 31.5T480-80Zm240-120-64-64q8-20 12-43t4-47q0-54-21-99.5T587-548L480-654l-36 36-56-56 92-92 212 210q50 51 79 114t29 130q0 41-10.5 78.5T759-164l-39-36ZM480-340q-25 0-42.5-17.5T420-400q0-25 17.5-42.5T480-460q25 0 42.5 17.5T540-400q0 25-17.5 42.5T480-340Z"/></svg>
